<svg width="1105" height="500" viewBox="0 0 1105 500" fill="none" xmlns="http://www.w3.org/2000/svg">
<mask id="mask0" mask-type="alpha" maskUnits="userSpaceOnUse" x="100" y="100" width="300" height="300">
<rect x="100" y="100" width="300" height="300" rx="60" fill="#0984E3"/>
</mask>
<g mask="url(#mask0)">
<path d="M100 100H400V400H100V100Z" fill="#39D5FF"/>
<rect x="100" y="160" width="240" height="240" fill="#1297E0"/>
<rect x="100" y="220" width="180" height="180" fill="#0057A0"/>
</g>
<path d="M537.784 229.728C537.784 234.816 536.584 239.616 534.184 244.128C531.784 248.64 527.944 252.336 522.664 255.216C517.384 258 510.616 259.392 502.36 259.392H484.216V300H467.8V199.92H502.36C510.04 199.92 516.52 201.264 521.8 203.952C527.176 206.544 531.16 210.096 533.752 214.608C536.44 219.12 537.784 224.16 537.784 229.728ZM502.36 246C508.6 246 513.256 244.608 516.328 241.824C519.4 238.944 520.936 234.912 520.936 229.728C520.936 218.784 514.744 213.312 502.36 213.312H484.216V246H502.36ZM624.865 220.656L576.193 337.296H559.201L575.329 298.704L544.081 220.656H562.369L584.689 281.136L607.873 220.656H624.865ZM707.237 229.728C707.237 234.816 706.037 239.616 703.637 244.128C701.237 248.64 697.397 252.336 692.117 255.216C686.837 258 680.069 259.392 671.813 259.392H653.669V300H637.253V199.92H671.813C679.493 199.92 685.973 201.264 691.253 203.952C696.629 206.544 700.613 210.096 703.205 214.608C705.893 219.12 707.237 224.16 707.237 229.728ZM671.813 246C678.053 246 682.709 244.608 685.781 241.824C688.853 238.944 690.389 234.912 690.389 229.728C690.389 218.784 684.197 213.312 671.813 213.312H653.669V246H671.813ZM717.422 259.968C717.422 252 719.054 244.944 722.318 238.8C725.678 232.656 730.19 227.904 735.854 224.544C741.614 221.088 747.95 219.36 754.862 219.36C761.102 219.36 766.526 220.608 771.134 223.104C775.838 225.504 779.582 228.528 782.366 232.176V220.656H798.926V300H782.366V288.192C779.582 291.936 775.79 295.056 770.99 297.552C766.19 300.048 760.718 301.296 754.574 301.296C747.758 301.296 741.518 299.568 735.854 296.112C730.19 292.56 725.678 287.664 722.318 281.424C719.054 275.088 717.422 267.936 717.422 259.968ZM782.366 260.256C782.366 254.784 781.214 250.032 778.91 246C776.702 241.968 773.774 238.896 770.126 236.784C766.478 234.672 762.542 233.616 758.318 233.616C754.094 233.616 750.158 234.672 746.51 236.784C742.862 238.8 739.886 241.824 737.582 245.856C735.374 249.792 734.27 254.496 734.27 259.968C734.27 265.44 735.374 270.24 737.582 274.368C739.886 278.496 742.862 281.664 746.51 283.872C750.254 285.984 754.19 287.04 758.318 287.04C762.542 287.04 766.478 285.984 770.126 283.872C773.774 281.76 776.702 278.688 778.91 274.656C781.214 270.528 782.366 265.728 782.366 260.256ZM860.52 219.36C866.76 219.36 872.328 220.656 877.224 223.248C882.216 225.84 886.104 229.68 888.888 234.768C891.672 239.856 893.064 246 893.064 253.2V300H876.792V255.648C876.792 248.544 875.016 243.12 871.464 239.376C867.912 235.536 863.064 233.616 856.92 233.616C850.776 233.616 845.88 235.536 842.232 239.376C838.68 243.12 836.904 248.544 836.904 255.648V300H820.488V220.656H836.904V229.728C839.592 226.464 843 223.92 847.128 222.096C851.352 220.272 855.816 219.36 860.52 219.36ZM986.723 258.384C986.723 261.36 986.531 264.048 986.147 266.448H925.523C926.003 272.784 928.355 277.872 932.579 281.712C936.803 285.552 941.987 287.472 948.131 287.472C956.963 287.472 963.203 283.776 966.851 276.384H984.563C982.163 283.68 977.795 289.68 971.459 294.384C965.219 298.992 957.443 301.296 948.131 301.296C940.547 301.296 933.731 299.616 927.683 296.256C921.731 292.8 917.027 288 913.571 281.856C910.211 275.616 908.531 268.416 908.531 260.256C908.531 252.096 910.163 244.944 913.427 238.8C916.787 232.56 921.443 227.76 927.395 224.4C933.443 221.04 940.355 219.36 948.131 219.36C955.619 219.36 962.291 220.992 968.147 224.256C974.003 227.52 978.563 232.128 981.827 238.08C985.091 243.936 986.723 250.704 986.723 258.384ZM969.587 253.2C969.491 247.152 967.331 242.304 963.107 238.656C958.883 235.008 953.651 233.184 947.411 233.184C941.747 233.184 936.899 235.008 932.867 238.656C928.835 242.208 926.435 247.056 925.667 253.2H969.587ZM1019.29 193.44V300H1002.88V193.44H1019.29Z" fill="#1297E0"/>
</svg>
